<svg width="180" height="180" viewBox="0 0 180 180" fill="none" xmlns="http://www.w3.org/2000/svg">
  <!-- Background -->
  <rect width="180" height="180" fill="#2563eb" rx="24"/>
  
  <!-- Building base -->
  <rect x="30" y="75" width="120" height="80" fill="#3b82f6" rx="4"/>
  
  <!-- Building top -->
  <rect x="40" y="50" width="100" height="40" fill="#60a5fa" rx="4"/>
  
  <!-- Roof -->
  <path d="M90 25L55 55h70L90 25z" fill="#1d4ed8"/>
  
  <!-- Windows row 1 -->
  <rect x="50" y="60" width="12" height="12" fill="#ffffff" opacity="0.95" rx="2"/>
  <rect x="70" y="60" width="12" height="12" fill="#ffffff" opacity="0.95" rx="2"/>
  <rect x="98" y="60" width="12" height="12" fill="#ffffff" opacity="0.95" rx="2"/>
  <rect x="118" y="60" width="12" height="12" fill="#ffffff" opacity="0.95" rx="2"/>
  
  <!-- Windows row 2 -->
  <rect x="50" y="85" width="12" height="12" fill="#ffffff" opacity="0.95" rx="2"/>
  <rect x="70" y="85" width="12" height="12" fill="#ffffff" opacity="0.95" rx="2"/>
  <rect x="98" y="85" width="12" height="12" fill="#ffffff" opacity="0.95" rx="2"/>
  <rect x="118" y="85" width="12" height="12" fill="#ffffff" opacity="0.95" rx="2"/>
  
  <!-- Windows row 3 -->
  <rect x="50" y="110" width="12" height="12" fill="#ffffff" opacity="0.95" rx="2"/>
  <rect x="70" y="110" width="12" height="12" fill="#ffffff" opacity="0.95" rx="2"/>
  <rect x="98" y="110" width="12" height="12" fill="#ffffff" opacity="0.95" rx="2"/>
  <rect x="118" y="110" width="12" height="12" fill="#ffffff" opacity="0.95" rx="2"/>
  
  <!-- Door -->
  <rect x="82" y="130" width="16" height="25" fill="#ffffff" opacity="0.95" rx="2"/>
  <circle cx="92" cy="142" r="2" fill="#2563eb"/>
</svg>
